{
	"asset":{
		"version":"2.0",
		"generator":"Created using the official Cinema 4D glTF Exporter 1.000x290161"
	},
	"scenes":[{
		"nodes":[0,
		3,
		6,
		9,
		12,
		15,
		18]
	}],
	"nodes":[{
		"translation":[-74.05669403076172,
		-45.4721565246582,
		39.86894226074219],
		"name":"减面.6",
		"rotation":[0.0,
		-0.7791275382041931,
		0.0,
		0.6268653869628906],
		"scale":[1.0,
		1.0,
		1.0],
		"children":[1]
	},
	{
		"translation":[-8.881784197001253e-16,
		0.0,
		-3.552713678800501e-15],
		"name":"胶囊",
		"rotation":[0.0,
		0.0,
		0.0,
		-1.0],
		"scale":[1.0,
		1.0,
		1.0],
		"children":[2]
	},
	{
		"name":"胶囊",
		"mesh":0
	},
	{
		"translation":[-97.11042022705078,
		-35.8372917175293,
		6.191220283508301],
		"name":"减面.5",
		"rotation":[0.0,
		0.0,
		0.0,
		-1.0],
		"scale":[1.0,
		1.0,
		1.0],
		"children":[4]
	},
	{
		"name":"胶囊",
		"children":[5]
	},
	{
		"name":"胶囊",
		"mesh":1
	},
	{
		"translation":[-5.340623378753662,
		25.226938247680665,
		-49.69591522216797],
		"name":"减面.3",
		"rotation":[0.0,
		-0.34773388504981997,
		0.0,
		-0.9375932812690735],
		"scale":[1.0,
		1.0,
		1.0],
		"children":[7,
		8]
	},
	{
		"translation":[0.0,
		8.9782133102417,
		0.0],
		"name":"圆锥",
		"rotation":[0.0,
		0.0,
		0.0,
		-1.0],
		"scale":[1.0,
		1.0,
		1.0],
		"mesh":2
	},
	{
		"translation":[0.0,
		-5.0248847007751469,
		0.0],
		"name":"圆柱",
		"rotation":[0.0,
		0.0,
		0.0,
		-1.0],
		"scale":[1.0,
		1.0,
		1.0],
		"mesh":3
	},
	{
		"translation":[-60.251678466796878,
		28.816879272460939,
		-51.37736129760742],
		"name":"减面.2",
		"rotation":[0.0,
		0.0,
		0.0,
		-1.0],
		"scale":[1.0,
		1.0,
		1.0],
		"children":[10,
		11]
	},
	{
		"translation":[0.0,
		13.02237319946289,
		0.0],
		"name":"圆锥",
		"rotation":[0.0,
		0.0,
		0.0,
		-1.0],
		"scale":[1.0,
		1.0,
		1.0],
		"mesh":4
	},
	{
		"translation":[0.0,
		-7.288301467895508,
		0.0],
		"name":"圆柱",
		"rotation":[0.0,
		0.0,
		0.0,
		-1.0],
		"scale":[1.0,
		1.0,
		1.0],
		"mesh":5
	},
	{
		"translation":[0.35309621691703799,
		24.629379272460939,
		29.018945693969728],
		"name":"减面.1",
		"rotation":[0.0,
		-0.34773388504981997,
		0.0,
		-0.9375932812690735],
		"scale":[1.0,
		1.0,
		1.0],
		"children":[13,
		14]
	},
	{
		"translation":[0.0,
		8.9782133102417,
		0.0],
		"name":"圆锥",
		"rotation":[0.0,
		0.0,
		0.0,
		-1.0],
		"scale":[1.0,
		1.0,
		1.0],
		"mesh":6
	},
	{
		"translation":[0.0,
		-5.0248847007751469,
		0.0],
		"name":"圆柱",
		"rotation":[0.0,
		0.0,
		0.0,
		-1.0],
		"scale":[1.0,
		1.0,
		1.0],
		"mesh":7
	},
	{
		"translation":[14.188265800476075,
		28.816879272460939,
		5.620088577270508],
		"name":"减面",
		"rotation":[0.0,
		0.0,
		0.0,
		-1.0],
		"scale":[1.0,
		1.0,
		1.0],
		"children":[16,
		17]
	},
	{
		"translation":[0.0,
		13.02237319946289,
		0.0],
		"name":"圆锥",
		"rotation":[0.0,
		0.0,
		0.0,
		-1.0],
		"scale":[1.0,
		1.0,
		1.0],
		"mesh":8
	},
	{
		"translation":[0.0,
		-7.288301467895508,
		0.0],
		"name":"圆柱",
		"rotation":[0.0,
		0.0,
		0.0,
		-1.0],
		"scale":[1.0,
		1.0,
		1.0],
		"mesh":9
	},
	{
		"name":"布尔",
		"children":[19,
		21]
	},
	{
		"name":"减面",
		"children":[20]
	},
	{
		"translation":[0.0,
		0.0,
		0.0],
		"name":"球体",
		"rotation":[-0.7071067690849304,
		0.0,
		0.0,
		-0.7071067690849304],
		"scale":[1.0,
		1.0,
		1.0],
		"mesh":10
	},
	{
		"translation":[0.0,
		103.76968383789063,
		0.0],
		"name":"立方体",
		"rotation":[0.0,
		0.0,
		0.0,
		-1.0],
		"scale":[1.0,
		1.0,
		1.0],
		"mesh":11
	}],
	"meshes":[{
		"primitives":[{
			"attributes":{
				"POSITION":1,
				"TEXCOORD_0":2
			},
			"indices":0,
			"material":0
		}]
	},
	{
		"primitives":[{
			"attributes":{
				"POSITION":4,
				"TEXCOORD_0":5
			},
			"indices":3,
			"material":0
		}]
	},
	{
		"primitives":[{
			"attributes":{
				"POSITION":7,
				"TEXCOORD_0":8
			},
			"indices":6,
			"material":1
		}]
	},
	{
		"primitives":[{
			"attributes":{
				"POSITION":10,
				"NORMAL":11,
				"TEXCOORD_0":12
			},
			"indices":9,
			"material":2
		}]
	},
	{
		"primitives":[{
			"attributes":{
				"POSITION":14,
				"TEXCOORD_0":15
			},
			"indices":13,
			"material":1
		}]
	},
	{
		"primitives":[{
			"attributes":{
				"POSITION":17,
				"NORMAL":18,
				"TEXCOORD_0":19
			},
			"indices":16,
			"material":2
		}]
	},
	{
		"primitives":[{
			"attributes":{
				"POSITION":21,
				"TEXCOORD_0":22
			},
			"indices":20,
			"material":1
		}]
	},
	{
		"primitives":[{
			"attributes":{
				"POSITION":24,
				"NORMAL":25,
				"TEXCOORD_0":26
			},
			"indices":23,
			"material":2
		}]
	},
	{
		"primitives":[{
			"attributes":{
				"POSITION":28,
				"TEXCOORD_0":29
			},
			"indices":27,
			"material":1
		}]
	},
	{
		"primitives":[{
			"attributes":{
				"POSITION":31,
				"NORMAL":32,
				"TEXCOORD_0":33
			},
			"indices":30,
			"material":2
		}]
	},
	{
		"primitives":[{
			"attributes":{
				"POSITION":35,
				"TEXCOORD_0":36
			},
			"indices":34,
			"material":0
		}]
	},
	{
		"primitives":[{
			"attributes":{
				"POSITION":38,
				"NORMAL":39,
				"TEXCOORD_0":40
			},
			"indices":37,
			"material":1
		}]
	}],
	"accessors":[{
		"bufferView":0,
		"type":"SCALAR",
		"componentType":5123,
		"count":78,
		"byteOffset":0,
		"min":[0],
		"max":[23]
	},
	{
		"bufferView":1,
		"type":"VEC3",
		"componentType":5126,
		"count":24,
		"byteOffset":0,
		"min":[-4.766303062438965,
		-16.514272689819337,
		-7.4752936363220219],
		"max":[4.515324115753174,
		17.597286224365236,
		7.808948993682861]
	},
	{
		"bufferView":1,
		"type":"VEC2",
		"componentType":5126,
		"count":24,
		"byteOffset":12,
		"min":[0.0,
		0.0],
		"max":[1.0,
		1.0]
	},
	{
		"bufferView":2,
		"type":"SCALAR",
		"componentType":5123,
		"count":78,
		"byteOffset":0,
		"min":[0],
		"max":[21]
	},
	{
		"bufferView":3,
		"type":"VEC3",
		"componentType":5126,
		"count":22,
		"byteOffset":0,
		"min":[-4.3684282302856449,
		-12.33684253692627,
		-14.154607772827149],
		"max":[4.675045967102051,
		12.979945182800293,
		12.78970718383789]
	},
	{
		"bufferView":3,
		"type":"VEC2",
		"componentType":5126,
		"count":22,
		"byteOffset":12,
		"min":[0.0,
		0.04780496656894684],
		"max":[1.0,
		0.9442274570465088]
	},
	{
		"bufferView":4,
		"type":"SCALAR",
		"componentType":5123,
		"count":36,
		"byteOffset":0,
		"min":[0],
		"max":[24]
	},
	{
		"bufferView":5,
		"type":"VEC3",
		"componentType":5126,
		"count":25,
		"byteOffset":0,
		"min":[-10.013842582702637,
		-10.410051345825196,
		-10.013842582702637],
		"max":[8.687430381774903,
		10.410051345825196,
		10.013842582702637]
	},
	{
		"bufferView":5,
		"type":"VEC2",
		"componentType":5126,
		"count":25,
		"byteOffset":12,
		"min":[0.08273836225271225,
		0.0],
		"max":[1.0,
		1.0]
	},
	{
		"bufferView":6,
		"type":"SCALAR",
		"componentType":5123,
		"count":42,
		"byteOffset":0,
		"min":[0],
		"max":[29]
	},
	{
		"bufferView":7,
		"type":"VEC3",
		"componentType":5126,
		"count":30,
		"byteOffset":0,
		"min":[-2.3117876052856447,
		-5.0934648513793949,
		-2.449803113937378],
		"max":[2.449803113937378,
		5.0934648513793949,
		2.449803113937378]
	},
	{
		"bufferView":7,
		"type":"VEC3",
		"componentType":5126,
		"count":30,
		"byteOffset":12,
		"min":[-0.9553207755088806,
		-1.0,
		-0.8689095377922058],
		"max":[0.9630268812179565,
		1.0,
		0.9984248280525208]
	},
	{
		"bufferView":7,
		"type":"VEC2",
		"componentType":5126,
		"count":30,
		"byteOffset":24,
		"min":[0.04612671211361885,
		0.0],
		"max":[1.0,
		1.0]
	},
	{
		"bufferView":8,
		"type":"SCALAR",
		"componentType":5123,
		"count":36,
		"byteOffset":0,
		"min":[0],
		"max":[20]
	},
	{
		"bufferView":9,
		"type":"VEC3",
		"componentType":5126,
		"count":21,
		"byteOffset":0,
		"min":[-14.524493217468262,
		-15.099170684814454,
		-14.524493217468262],
		"max":[14.524493217468262,
		15.099170684814454,
		14.524493217468262]
	},
	{
		"bufferView":9,
		"type":"VEC2",
		"componentType":5126,
		"count":21,
		"byteOffset":12,
		"min":[0.019030116498470308,
		0.0],
		"max":[1.0,
		1.0]
	},
	{
		"bufferView":10,
		"type":"SCALAR",
		"componentType":5123,
		"count":42,
		"byteOffset":0,
		"min":[0],
		"max":[29]
	},
	{
		"bufferView":11,
		"type":"VEC3",
		"componentType":5126,
		"count":30,
		"byteOffset":0,
		"min":[-3.082634210586548,
		-7.387773036956787,
		-3.5532963275909426],
		"max":[3.483001232147217,
		7.387773036956787,
		3.3531126976013185]
	},
	{
		"bufferView":11,
		"type":"VEC3",
		"componentType":5126,
		"count":30,
		"byteOffset":12,
		"min":[-0.9932282567024231,
		-1.0,
		-0.9745538830757141],
		"max":[0.9162850379943848,
		1.0,
		0.9560799598693848]
	},
	{
		"bufferView":11,
		"type":"VEC2",
		"componentType":5126,
		"count":30,
		"byteOffset":24,
		"min":[0.03125,
		0.0],
		"max":[0.9714548587799072,
		1.0]
	},
	{
		"bufferView":12,
		"type":"SCALAR",
		"componentType":5123,
		"count":36,
		"byteOffset":0,
		"min":[0],
		"max":[24]
	},
	{
		"bufferView":13,
		"type":"VEC3",
		"componentType":5126,
		"count":25,
		"byteOffset":0,
		"min":[-10.013842582702637,
		-10.410051345825196,
		-10.013842582702637],
		"max":[8.687430381774903,
		10.410051345825196,
		10.013842582702637]
	},
	{
		"bufferView":13,
		"type":"VEC2",
		"componentType":5126,
		"count":25,
		"byteOffset":12,
		"min":[0.08273836225271225,
		0.0],
		"max":[1.0,
		1.0]
	},
	{
		"bufferView":14,
		"type":"SCALAR",
		"componentType":5123,
		"count":42,
		"byteOffset":0,
		"min":[0],
		"max":[29]
	},
	{
		"bufferView":15,
		"type":"VEC3",
		"componentType":5126,
		"count":30,
		"byteOffset":0,
		"min":[-2.3117876052856447,
		-5.0934648513793949,
		-2.449803113937378],
		"max":[2.449803113937378,
		5.0934648513793949,
		2.449803113937378]
	},
	{
		"bufferView":15,
		"type":"VEC3",
		"componentType":5126,
		"count":30,
		"byteOffset":12,
		"min":[-0.9553207755088806,
		-1.0,
		-0.8689095377922058],
		"max":[0.9630268812179565,
		1.0,
		0.9984248280525208]
	},
	{
		"bufferView":15,
		"type":"VEC2",
		"componentType":5126,
		"count":30,
		"byteOffset":24,
		"min":[0.04612671211361885,
		0.0],
		"max":[1.0,
		1.0]
	},
	{
		"bufferView":16,
		"type":"SCALAR",
		"componentType":5123,
		"count":36,
		"byteOffset":0,
		"min":[0],
		"max":[20]
	},
	{
		"bufferView":17,
		"type":"VEC3",
		"componentType":5126,
		"count":21,
		"byteOffset":0,
		"min":[-14.524493217468262,
		-15.099170684814454,
		-14.524493217468262],
		"max":[14.524493217468262,
		15.099170684814454,
		14.524493217468262]
	},
	{
		"bufferView":17,
		"type":"VEC2",
		"componentType":5126,
		"count":21,
		"byteOffset":12,
		"min":[0.019030116498470308,
		0.0],
		"max":[1.0,
		1.0]
	},
	{
		"bufferView":18,
		"type":"SCALAR",
		"componentType":5123,
		"count":42,
		"byteOffset":0,
		"min":[0],
		"max":[29]
	},
	{
		"bufferView":19,
		"type":"VEC3",
		"componentType":5126,
		"count":30,
		"byteOffset":0,
		"min":[-3.082634210586548,
		-7.387773036956787,
		-3.5532963275909426],
		"max":[3.483001232147217,
		7.387773036956787,
		3.3531126976013185]
	},
	{
		"bufferView":19,
		"type":"VEC3",
		"componentType":5126,
		"count":30,
		"byteOffset":12,
		"min":[-0.9932282567024231,
		-1.0,
		-0.9745538830757141],
		"max":[0.9162850379943848,
		1.0,
		0.9560799598693848]
	},
	{
		"bufferView":19,
		"type":"VEC2",
		"componentType":5126,
		"count":30,
		"byteOffset":24,
		"min":[0.03125,
		0.0],
		"max":[0.9714548587799072,
		1.0]
	},
	{
		"bufferView":20,
		"type":"SCALAR",
		"componentType":5123,
		"count":348,
		"byteOffset":0,
		"min":[0],
		"max":[114]
	},
	{
		"bufferView":21,
		"type":"VEC3",
		"componentType":5126,
		"count":115,
		"byteOffset":0,
		"min":[-96.45231628417969,
		-90.73619842529297,
		-3.769683837890625],
		"max":[96.19306945800781,
		96.71296691894531,
		99.7722396850586]
	},
	{
		"bufferView":21,
		"type":"VEC2",
		"componentType":5126,
		"count":115,
		"byteOffset":12,
		"min":[0.0,
		0.0],
		"max":[1.0,
		1.0]
	},
	{
		"bufferView":22,
		"type":"SCALAR",
		"componentType":5123,
		"count":318,
		"byteOffset":0,
		"min":[0],
		"max":[123]
	},
	{
		"bufferView":23,
		"type":"VEC3",
		"componentType":5126,
		"count":124,
		"byteOffset":0,
		"min":[-105.84652709960938,
		-100.0,
		-99.43505859375],
		"max":[104.00840759277344,
		-88.42578125,
		104.3354721069336]
	},
	{
		"bufferView":23,
		"type":"VEC3",
		"componentType":5126,
		"count":124,
		"byteOffset":12,
		"min":[-0.9384123086929321,
		-0.6433764696121216,
		-0.802962064743042],
		"max":[0.8467276096343994,
		1.0,
		0.8179110884666443]
	},
	{
		"bufferView":23,
		"type":"VEC2",
		"componentType":5126,
		"count":124,
		"byteOffset":24,
		"min":[0.017738427966833116,
		0.02081698179244995],
		"max":[0.9784568548202515,
		0.9536809921264648]
	}],
	"bufferViews":[{
		"buffer":0,
		"target":34963,
		"byteOffset":0,
		"byteLength":156
	},
	{
		"buffer":0,
		"target":34962,
		"byteOffset":156,
		"byteLength":480,
		"byteStride":20
	},
	{
		"buffer":1,
		"target":34963,
		"byteOffset":0,
		"byteLength":156
	},
	{
		"buffer":1,
		"target":34962,
		"byteOffset":156,
		"byteLength":440,
		"byteStride":20
	},
	{
		"buffer":2,
		"target":34963,
		"byteOffset":0,
		"byteLength":72
	},
	{
		"buffer":2,
		"target":34962,
		"byteOffset":72,
		"byteLength":500,
		"byteStride":20
	},
	{
		"buffer":3,
		"target":34963,
		"byteOffset":0,
		"byteLength":84
	},
	{
		"buffer":3,
		"target":34962,
		"byteOffset":84,
		"byteLength":960,
		"byteStride":32
	},
	{
		"buffer":4,
		"target":34963,
		"byteOffset":0,
		"byteLength":72
	},
	{
		"buffer":4,
		"target":34962,
		"byteOffset":72,
		"byteLength":420,
		"byteStride":20
	},
	{
		"buffer":5,
		"target":34963,
		"byteOffset":0,
		"byteLength":84
	},
	{
		"buffer":5,
		"target":34962,
		"byteOffset":84,
		"byteLength":960,
		"byteStride":32
	},
	{
		"buffer":6,
		"target":34963,
		"byteOffset":0,
		"byteLength":72
	},
	{
		"buffer":6,
		"target":34962,
		"byteOffset":72,
		"byteLength":500,
		"byteStride":20
	},
	{
		"buffer":7,
		"target":34963,
		"byteOffset":0,
		"byteLength":84
	},
	{
		"buffer":7,
		"target":34962,
		"byteOffset":84,
		"byteLength":960,
		"byteStride":32
	},
	{
		"buffer":8,
		"target":34963,
		"byteOffset":0,
		"byteLength":72
	},
	{
		"buffer":8,
		"target":34962,
		"byteOffset":72,
		"byteLength":420,
		"byteStride":20
	},
	{
		"buffer":9,
		"target":34963,
		"byteOffset":0,
		"byteLength":84
	},
	{
		"buffer":9,
		"target":34962,
		"byteOffset":84,
		"byteLength":960,
		"byteStride":32
	},
	{
		"buffer":10,
		"target":34963,
		"byteOffset":0,
		"byteLength":696
	},
	{
		"buffer":10,
		"target":34962,
		"byteOffset":696,
		"byteLength":2300,
		"byteStride":20
	},
	{
		"buffer":11,
		"target":34963,
		"byteOffset":0,
		"byteLength":636
	},
	{
		"buffer":11,
		"target":34962,
		"byteOffset":636,
		"byteLength":3968,
		"byteStride":32
	}],
	"buffers":[{
		"uri":"data:application/octet-stream;base64,",
		"byteLength":636
	},
	{
		"uri":"data:application/octet-stream;base64,",
		"byteLength":596
	},
	{
		"uri":"data:application/octet-stream;base64,",
		"byteLength":572
	},
	{
		"uri":"data:application/octet-stream;base64,",
		"byteLength":1044
	},
	{
		"uri":"data:application/octet-stream;base64,",
		"byteLength":492
	},
	{
		"uri":"data:application/octet-stream;base64,",
		"byteLength":1044
	},
	{
		"uri":"data:application/octet-stream;base64,",
		"byteLength":572
	},
	{
		"uri":"data:application/octet-stream;base64,",
		"byteLength":1044
	},
	{
		"uri":"data:application/octet-stream;base64,",
		"byteLength":492
	},
	{
		"uri":"data:application/octet-stream;base64,",
		"byteLength":1044
	},
	{
		"uri":"data:application/octet-stream;base64,",
		"byteLength":2996
	},
	{
		"uri":"data:application/octet-stream;base64,",
		"byteLength":4604
	}],
	"materials":[{
		"pbrMetallicRoughness":{
			"baseColorFactor":[0.86,
			0.4768699999999996,
			0.16339999999999997,
			1.0],
			"metallicFactor":1.0,
			"roughnessFactor":1.0
		},
		"emissiveFactor":[0.0,
		0.0,
		0.0],
		"alphaMode":"OPAQUE",
		"doubleSided":false,
		"name":"材质"
	},
	{
		"pbrMetallicRoughness":{
			"baseColorFactor":[0.33480000000000006,
			0.62,
			0.33480000000000006,
			1.0],
			"metallicFactor":1.0,
			"roughnessFactor":1.0
		},
		"emissiveFactor":[0.0,
		0.0,
		0.0],
		"alphaMode":"OPAQUE",
		"doubleSided":false,
		"name":"材质"
	},
	{
		"pbrMetallicRoughness":{
			"baseColorFactor":[0.54,
			0.28683,
			0.016200000000000018,
			1.0],
			"metallicFactor":1.0,
			"roughnessFactor":1.0
		},
		"emissiveFactor":[0.0,
		0.0,
		0.0],
		"alphaMode":"OPAQUE",
		"doubleSided":false,
		"name":"材质"
	}]
}